<svg width="751" height="337" viewBox="0 0 751 337" fill="none" xmlns="http://www.w3.org/2000/svg">
<path d="M273.529 97.0681C273.529 97.0681 246.218 139.269 284.381 152.983" stroke="#9F6B08" stroke-width="7" stroke-miterlimit="10"/>
<path d="M388.186 174.95C388.186 174.95 432.558 204.862 371.181 219.874" stroke="#9F6B08" stroke-width="7" stroke-miterlimit="10"/>
<path d="M575.49 177.377C575.49 177.377 591.306 164.242 599.669 159.558C608.031 154.873 622.044 141.851 622.044 135.685V126.387" stroke="#9F6B08" stroke-width="7" stroke-miterlimit="10"/>
<path d="M688.524 309.058C688.524 309.058 704.522 295.273 709.249 278.695C713.976 262.117 729.582 196.114 730.966 190.471C732.351 184.827 734.029 164.905 728.463 155.917" stroke="#9F6B08" stroke-width="7" stroke-miterlimit="10"/>
<path d="M4.26465 217.885L33.967 296.966" stroke="#9F6B08" stroke-width="7" stroke-miterlimit="10"/>
<path d="M110.53 309.876C110.53 309.876 143.127 303.682 150.791 303.202C158.454 302.723 162.775 303.682 176.2 303.202C189.625 302.723 434.614 303.061 434.614 303.061L539.607 306.405L591.852 316.747" stroke="#040404" stroke-width="3" stroke-miterlimit="10"/>
<path d="M496.941 315.605C496.941 315.605 65.9766 309.961 59.7257 309.876C53.4748 309.792 38.4837 313.22 35.4632 302.949C34.2386 299.175 34.1369 295.121 35.1708 291.29C36.2047 287.458 38.3288 284.017 41.2806 281.39C45.4758 277.75 51.545 271.598 52.0903 267.394C52.6357 263.189 45.9653 255.373 41.2526 252.551C36.5399 249.729 6.64178 227.154 4.26447 217.885C1.88716 208.615 16.3048 187.945 16.8502 187.113C17.3956 186.28 47.1679 135.445 51.2373 129.801C55.3067 124.158 67.0394 126.979 70.6473 136.856C74.2553 146.732 84.7853 194.703 88.9386 198.936C93.0919 203.169 95.9307 210.999 118.893 212.961C141.855 214.922 273.054 220.509 273.054 220.509L415.567 219.676C415.567 219.676 442.137 219.959 445.507 218.548C448.877 217.137 457.981 202.604 439.69 195.338C421.398 188.072 334.053 153.138 328.502 151.995C322.95 150.852 304.938 150.062 291.625 151.995C278.312 153.928 206.224 165.399 199.567 165.681C192.911 165.963 166.579 159.261 161.307 150.02C156.035 140.778 136.149 106.817 134.415 100.666C132.681 94.5143 131.954 72.1371 156.594 73.534C181.234 74.9308 295.793 100.948 295.793 100.948C295.793 100.948 331.83 110.458 339.871 109.907C347.912 109.357 365.937 104.87 378.075 93.6818C390.214 82.4933 447.115 17.5912 458.764 11.4255C470.413 5.25981 495.64 2.48031 504.506 3.87712C513.372 5.27392 523.637 11.9899 524.476 22.0638C525.315 32.1377 523.371 124.172 524.476 131.438C525.581 138.704 526.14 155.776 559.436 172.002C592.733 188.227 626.253 201.377 632.909 203.62C639.566 205.864 667.87 202.209 653.704 172.002C635.692 142.626 605.192 104.955 601.864 97.068C598.536 89.181 593.544 56.1515 636.825 56.1515C667.884 56.9839 675.085 77.414 681.742 86.6413C688.398 95.8687 737.748 167.205 743.566 185.405C759.102 244.988 716.115 315.633 658.724 315.633C596.061 316.508 496.941 315.605 496.941 315.605Z" stroke="#040404" stroke-width="7" stroke-miterlimit="10"/>
<path d="M518.672 330.419L524.588 330.334L524.672 336.303L518.7 336.387L518.672 330.419Z" fill="#040404"/>
<path d="M524.588 330.391V336.303H518.714V330.391H524.574M524.686 330.278H524.574H518.714H518.603V330.377V336.303V336.401H518.7H524.574H524.672V336.289V330.377V330.264L524.686 330.278Z" fill="#040404"/>
<path d="M512.799 330.447L518.728 330.363L518.812 336.331L512.841 336.416L512.799 330.447Z" fill="white"/>
<path d="M518.728 330.419V336.331H512.855V330.405H518.728M518.826 330.292H518.728H512.855H512.757V330.391V336.317V336.416H512.855H518.728H518.826V336.303V330.391V330.278V330.292Z" fill="#040404"/>
<path d="M506.94 330.475L512.855 330.391L512.939 336.373L506.968 336.458L506.94 330.475Z" fill="#040404"/>
<path d="M512.855 330.447V336.373H506.996V330.447H512.855ZM512.967 330.349H512.855H506.996H506.884V330.447V336.373V336.472H506.996H512.855H512.967V336.373V330.447V330.349Z" fill="#040404"/>
<path d="M518.645 324.493L524.56 324.408L524.644 330.391L518.673 330.475L518.645 324.493Z" fill="white"/>
<path d="M524.56 324.507V330.433H518.7V324.507H524.574M524.672 324.408H524.574H518.7H518.603V324.507V330.433V330.532H518.714H524.574H524.686V330.433V324.507V324.408H524.672Z" fill="#040404"/>
<path d="M512.771 324.535L518.7 324.451L518.784 330.419L512.799 330.503L512.771 324.535Z" fill="#040404"/>
<path d="M518.686 324.507V330.433H512.813V324.521H518.672M518.784 324.423H518.672H512.813H512.701V324.507V330.419V330.532H512.799H518.672H518.77V330.433V324.507V324.408L518.784 324.423Z" fill="#040404"/>
<path d="M506.912 324.564L512.827 324.479L512.911 330.447L506.94 330.532L506.912 324.564Z" fill="white"/>
<path d="M512.827 324.507V330.419H506.968V324.507H512.841M512.939 324.394H512.841H506.968H506.87V324.507V330.419V330.532H506.981H512.841H512.953V330.419V324.507V324.394H512.939Z" fill="#040404"/>
<path d="M518.616 318.581L524.532 318.497L524.615 324.465L518.644 324.55L518.616 318.581Z" fill="#040404"/>
<path d="M524.532 318.553V324.465H518.658V318.553H524.532ZM524.63 318.44H524.532H518.658H518.561V318.553V324.465V324.578H518.658H524.532H524.63V324.507V318.582V318.483V318.44Z" fill="#040404"/>
<path d="M512.743 318.61L518.658 318.525L518.742 324.493L512.771 324.578L512.743 318.61Z" fill="white"/>
<path d="M518.658 318.581V324.493H512.799V318.567H518.658M518.77 318.454H518.658H512.799H512.687V318.553V324.479V324.578H512.785H518.644H518.756V324.507V318.595V318.483L518.77 318.454Z" fill="#040404"/>
<path d="M506.87 318.638L512.799 318.553L512.883 324.536L506.912 324.606L506.87 318.638Z" fill="#040404"/>
<path d="M512.799 318.61V324.535H506.926V318.61H512.799ZM512.897 318.511H512.799H506.926H506.828V318.61V324.535V324.634H506.926H512.799H512.897V324.507V318.581V318.483V318.511Z" fill="#040404"/>
<path d="M518.574 312.656L524.49 312.571L524.573 318.553L518.616 318.638L518.574 312.656Z" fill="white"/>
<path d="M524.503 312.627V318.553H518.63V312.627H524.503ZM524.601 312.529H524.489H518.63H518.532V312.627V318.553V318.652H518.63H524.503H524.601V318.539V312.627V312.529V312.529Z" fill="#040404"/>
<path d="M512.715 312.698L518.63 312.599L518.714 318.582L512.743 318.666L512.715 312.698Z" fill="#040404"/>
<path d="M518.631 312.656V318.581H512.771V312.656H518.645M518.742 312.557H518.645H512.771H512.673V312.67V318.581V318.68H512.785H518.645H518.756V318.581V312.656V312.557H518.742Z" fill="#040404"/>
<path d="M506.842 312.726L512.757 312.642L512.841 318.61L506.87 318.694L506.842 312.726Z" fill="white"/>
<path d="M512.757 312.684V318.61H506.884V312.698H512.743M512.855 312.599H512.743H506.884H506.73V312.712V318.624V318.737H506.828H512.701H512.799V318.638V312.712V312.613L512.855 312.599Z" fill="#040404"/>
<path d="M518.546 306.744L524.462 306.659L524.546 312.628L518.574 312.712L518.546 306.744Z" fill="#040404"/>
<path d="M524.462 306.702V312.627H518.588V306.716H524.448M524.56 306.617H524.448H518.588H518.477V306.73V312.642V312.754H518.574H524.448H524.546V312.656V306.73V306.631L524.56 306.617Z" fill="#040404"/>
<path d="M512.673 306.772L518.603 306.688L518.687 312.656L512.715 312.741L512.673 306.772Z" fill="white"/>
<path d="M518.603 306.744V312.656H512.729V306.744H518.603ZM518.7 306.631H518.603H512.729H512.631V306.73V312.656V312.754H512.729H518.603H518.7V312.642V306.73V306.617V306.631Z" fill="#040404"/>
<path d="M506.813 306.8L512.729 306.716L512.813 312.684L506.841 312.769L506.813 306.8Z" fill="#040404"/>
<path d="M512.729 306.772V312.684H506.87V306.758H512.729M512.841 306.645H512.729H506.87H506.73V306.744V312.67V312.769H506.828H512.687H512.799V312.656V306.744V306.631L512.841 306.645Z" fill="#040404"/>
<path d="M518.519 300.818L524.434 300.734L524.518 306.702L518.547 306.786L518.519 300.818Z" fill="white"/>
<path d="M524.434 300.79V306.702H518.575V300.776H524.434M524.532 300.663H524.434H518.561H518.463V300.762V306.688V306.786H518.575H524.434H524.546V306.674V300.762V300.649L524.532 300.663Z" fill="#040404"/>
<path d="M512.645 300.846L518.56 300.761L518.644 306.744L512.673 306.828L512.645 300.846Z" fill="#040404"/>
<path d="M518.574 300.818V306.744H512.701V300.818H518.574ZM518.672 300.719H518.56H512.701H512.603V300.818V306.744V306.843H512.701H518.574H518.672V306.744V300.818V300.719Z" fill="#040404"/>
<path d="M506.786 300.889L512.701 300.804L512.785 306.772L506.814 306.857L506.786 300.889Z" fill="white"/>
<path d="M512.701 300.846V306.772H506.842V300.86H512.715M512.813 300.761H512.715H506.842H506.73V300.874V306.786V306.899H506.842H512.701H512.813V306.8V300.874V300.776V300.761Z" fill="#040404"/>
<path d="M518.491 294.906L524.406 294.822L524.49 300.79L518.519 300.874L518.491 294.906Z" fill="#040404"/>
<path d="M524.406 294.878V300.804H518.547V294.892H524.42M524.518 294.793H524.42H518.547H518.449V294.878V300.79V300.903H518.561H524.42H524.532V300.804V294.878V294.779L524.518 294.793Z" fill="#040404"/>
<path d="M512.617 294.935L518.533 294.85L518.616 300.818L512.645 300.903L512.617 294.935Z" fill="white"/>
<path d="M518.533 294.878V300.79H512.659V294.878H518.519M518.63 294.765H518.519H512.659H512.547V294.878V300.79V300.903H512.645H518.519H518.616V300.804V294.878V294.779L518.63 294.765Z" fill="#040404"/>
<path d="M506.744 294.963L512.673 294.878L512.757 300.846L506.786 300.931L506.744 294.963Z" fill="#040404"/>
<path d="M512.673 294.878V300.79H506.8V294.864H512.673M512.771 294.751H512.673H506.8H506.73V294.85V300.776V300.875H506.828H512.701H512.799V300.762V294.85V294.878L512.771 294.751Z" fill="#040404"/>
<path d="M518.449 288.98L524.378 288.896L524.462 294.864L518.491 294.949L518.449 288.98Z" fill="white"/>
<path d="M524.378 288.952V294.864H518.505V288.938H524.378M524.476 288.825H524.378H518.505H518.407V288.924V294.85V294.949H518.505H524.378H524.476V294.878V288.966V288.853V288.825Z" fill="#040404"/>
<path d="M512.589 289.009L518.505 288.924L518.589 294.892L512.617 294.977L512.589 289.009Z" fill="#040404"/>
<path d="M518.505 288.981V294.906H512.645V288.981H518.519M518.616 288.882H518.519H512.645H512.547V288.981V294.906V295.005H512.659H518.519H518.63V294.878V288.966V288.868L518.616 288.882Z" fill="#040404"/>
<path d="M506.716 289.051L512.645 288.967L512.715 294.935L506.744 295.019L506.716 289.051Z" fill="white"/>
<path d="M512.631 289.009V294.935H506.758V289.009H512.617M512.729 288.91H512.617H506.758H506.73V289.009V294.935V295.033H506.828H512.701H512.799V294.878V288.952V288.854L512.729 288.91Z" fill="#040404"/>
</svg>
