<svg width="34" height="38" viewBox="0 0 34 38" fill="none" xmlns="http://www.w3.org/2000/svg">
<path d="M31.8732 2.86744L33 33.9914L31.9465 35.755L31.7606 36.0663H14.4085L1 37V10.7522V9.81844L13.8451 1.72622L15.1972 1.36311L16.5493 1L30.8592 2.74385L31.8732 2.86744Z" fill="white"/>
<path d="M14.4085 36.0663H31.7606L31.9465 35.755M14.4085 36.0663L1 37V10.7522M14.4085 36.0663L13.8451 2.86744L1 10.7522M16.5493 1L30.8592 2.74385M16.5493 1L15.1972 1.36311M16.5493 1L16.5874 2.53708M1 10.7522V9.81844L13.8451 1.72622L15.1972 1.36311M30.8592 2.74385L31.8732 2.86744L33 33.9914L31.9465 35.755M30.8592 2.74385L30.8976 4.00865M15.1972 1.36311L15.7606 33.9914L16.0986 35.1326L17.1127 35.755H19.3662H31.9465M16.5874 2.53708L30.8976 4.00865M16.5874 2.53708L16.6906 6.70605M30.8976 4.00865L31.0172 7.95101M16.6906 6.70605L31.0172 7.95101M16.6906 6.70605L16.7971 11.0063M31.0172 7.95101L31.1401 11.9971M16.7971 11.0063L31.1401 11.9971M16.7971 11.0063L16.8216 11.9971M31.1401 11.9971L31.7606 32.4352L31.4225 33.4726H24.5493H18.2394L17.338 32.8501L16.9475 17.0807M16.8216 11.9971L26.9155 12.6196V17.4957L16.9475 17.0807M16.8216 11.9971L16.9475 17.0807M28.0423 12.8271V17.4957H30.5211V12.8271H28.0423Z" stroke="black"/>
</svg>
