<svg width="468" height="194" viewBox="0 0 468 194" fill="none" xmlns="http://www.w3.org/2000/svg">
<path d="M192.18 68.4466L191.682 59.0927H190.188V62.71L190.92 73.0486L194.669 89.2948L195.167 92.741L197.158 93.5544L192.18 68.4466Z" fill="#0F57F7" stroke="#0F57F7"/>
<path d="M276.26 68.217L277.08 58.108L278.808 58.6003L277.812 62.7521L277.08 73.1851L273.331 89.5799V93.5544H271.838L276.26 68.217Z" fill="#0F57F7" stroke="#0F57F7"/>
<path d="M263.189 102.908H205.622L200.145 98.9698L195.665 92.5698H197.158L198.154 94.539L199.647 96.5083L202.635 99.4621L205.622 101.924H263.374L267.357 98.4775L271.34 93.5544H272.833L270.344 98.4775L266.859 100.939L263.189 102.908Z" fill="#3A3E40" stroke="#393B3C"/>
<path d="M192.886 3.67585L218.073 1H242.228L268.653 3.67585L283.724 7.568L295.286 13.8927L296.731 22.1636L296.008 26.6639L295.286 31.1642L282.486 37.2456L263.905 40.6513L243.26 42.3541H225.092L208.164 40.6513L188.344 37.2456L176.783 34.3265L168.525 27.272L167.286 22.1636V13.8927L173.48 8.54104L192.886 3.67585Z" fill="white"/>
<path d="M168.525 27.272L167.286 22.1636V13.8927L173.48 8.54104L192.886 3.67585L218.073 1H242.228L268.653 3.67585L283.724 7.568L295.286 13.8927L296.731 22.1636L296.008 26.6639M168.525 27.272L176.783 34.3265L188.344 37.2456L208.164 40.6513L225.092 42.3541H243.26L263.905 40.6513L282.486 37.2456L295.286 31.1642L296.008 26.6639M168.525 27.272L172.035 22.1636M172.035 22.1636L186.486 17.0551L211.467 13.8927H243.26L268.653 17.0551L281.041 19.2445L291.363 23.6231M172.035 22.1636L180.293 26.6639L189.996 28.9748L214.77 32.3805L238.512 33.3535L260.808 32.3805L285.376 27.272L291.363 23.6231M291.363 23.6231L296.008 26.6639" stroke="#2463F0"/>
<path d="M160.814 154.109C160.814 154.109 144.882 190.037 144.882 191.524C144.882 193.012 155.338 192.017 155.338 192.017L167.784 166.721L179.235 147.384L191.184 142.922L200.145 144.905H267.357L278.31 142.922L287.769 144.905L311.667 193C314.82 192.669 320.628 193 321.126 192.504C321.624 192.008 320.13 186.554 320.13 186.554L314.654 170.688L308.182 152.838L299.22 134.493L288.765 117.139L276.318 101.273L274.825 92.0775L273.829 93.0621L272.833 94.539L270.842 99.2894L263.374 103.752H205.622L199.647 99.2894L195.664 93.5544V98.2978L190.188 106.231L176.248 123.585L168.282 138.355L160.814 154.109Z" fill="#222631" stroke="black"/>
<path d="M154.831 60.4055L154.342 64.0158L159.818 62.8123L172.44 60.4055L182.222 58.108L181.244 53.7866L173.907 53.1849L169.26 53.7866L164.614 54.3884L154.831 60.4055Z" fill="#303331"/>
<path d="M312.173 59.0927L313.16 63.5235L308.679 62.5388L294.241 59.585L284.782 58.108L285.76 53.6772L293.097 53.1849L302.391 54.1696L312.173 59.0927Z" fill="#303331"/>
<path d="M124.99 34.7183L132.739 53.8078L139.892 63.5435L149.032 70.4158L161.153 75.3791H170.095L176.851 77.479L179.235 83.0149L166.121 100.196L158.371 118.522L154 128.639L149.032 134.366L144.462 135.13L142.078 131.312L143.071 124.248L139.892 133.03L137.11 138.757L131.944 144.674L126.778 149.065L121.81 149.829L119.426 146.201L122.66 133.582L110.087 153.837L102.934 157.273L99.5558 156.319L98.3636 152.692L102.934 140.093L96.9727 150.401L92.2039 156.319L84.8519 162.428L78.4935 164.909L74.7182 164.146L74.1221 160.519L78.4935 149.256L68.5584 162.428L60.6104 168.345L52.2649 171.4L49.0857 170.827L47.4961 168.345L51.2714 160.519L37.3623 170.445L30.2091 173.309L22.6933 171.4V167.2L16.6974 170.445L3.58312 171.972L1 169.873V165.864L6.96104 159.564L18.4857 149.256L32.5935 136.657L43.9195 121.767L53.6558 104.968L60.6104 86.2602L76.1091 53.8078L90.2169 34.7183L99.5558 26.3188L109.292 23.6463L118.432 26.3188L124.99 34.7183Z" fill="white"/>
<path d="M102.934 44.6448L92.2039 56.2895L81.8714 73.0883L77.3013 86.2602M77.3013 86.2602L68.5584 111.268L55.4442 133.03M77.3013 86.2602L80.4805 91.7961L88.0312 90.8417L96.9727 75.3791M96.9727 75.3791L102.934 63.5435L110.087 56.8622M96.9727 75.3791L93.9922 83.9694V91.7961M93.9922 91.7961L99.5558 95.0414L105.716 90.8417L112.273 77.479L119.625 69.4613L114.657 77.479L110.087 86.2602L109.292 94.0869M93.9922 91.7961L88.0312 100.196L83.0636 111.268L80.4805 121.767M80.4805 121.767V128.639L83.0636 134.366H86.6403M80.4805 121.767L76.1091 131.312L70.7441 138.757M70.7441 138.757L62.3987 145.438H56.8351L53.6558 138.757L55.4442 133.03M70.7441 138.757L60.6104 148.301L51.2714 160.519M55.4442 133.03L52.2649 138.757L32.5935 159.564L22.6933 167.2M51.2714 160.519L37.3623 170.445L30.2091 173.309L22.6933 171.4V167.2M51.2714 160.519L47.4961 168.345L49.0857 170.827L52.2649 171.4L60.6104 168.345L68.5584 162.428L78.4935 149.256M22.6933 167.2L16.6974 170.445L3.58312 171.972L1 169.873V165.864L6.96104 159.564L18.4857 149.256L32.5935 136.657L43.9195 121.767L53.6558 104.968L60.6104 86.2602L76.1091 53.8079L90.2169 34.7183L99.5558 26.3188L109.292 23.6463L118.432 26.3188L124.99 34.7183L132.739 53.8079L139.892 63.5435L149.032 70.4158L161.153 75.3791H170.095L176.851 77.479L179.235 83.0149L166.121 100.196L158.371 118.522L154 128.639L149.032 134.366L144.462 135.13L142.078 131.312L143.071 124.248M78.4935 149.256L86.6403 134.366M78.4935 149.256L74.1221 160.519L74.7182 164.146L78.4935 164.909L84.8519 162.428L92.2039 156.319L96.9727 150.401L102.934 140.093M86.6403 134.366L92.2039 127.303L96.9727 115.467M96.9727 115.467L100.748 108.213L104.325 98.4775L109.292 94.0869M96.9727 115.467L95.7805 125.203L98.3636 131.312H102.934L107.106 128.639M109.292 94.0869L111.279 98.4775L116.048 97.523L123.003 86.2602L129.957 77.479L123.003 92.9415V98.4775M123.003 98.4775L116.048 111.268M123.003 98.4775L125.188 101.15L129.957 100.196L135.123 92.9415L141.482 85.4966L137.706 92.9415L138.303 100.196M116.048 111.268L107.106 128.639M116.048 111.268L113.862 118.522V126.157L117.042 128.066L121.81 126.157L131.149 114.131M107.106 128.639L102.934 140.093M102.934 140.093L98.3636 152.692L99.5558 156.319L102.934 157.273L110.087 153.837L122.66 133.582M122.66 133.582L119.426 146.202L121.81 149.829L126.778 149.065L131.944 144.674L137.11 138.757L139.892 133.03L143.071 124.248M122.66 133.582L131.149 114.131M146.251 115.467L143.071 124.248M146.251 115.467L144.661 109.549M146.251 115.467H150.026L154 111.268L159.564 95.0414M144.661 109.549L150.026 96.7594M144.661 109.549L138.899 121.385L134.13 124.248L131.149 122.34V114.131M150.026 96.7594L152.609 87.5964L144.661 99.6229L141.482 101.15L138.303 100.196M150.026 96.7594L151.417 99.0502H155.788L159.564 95.0414M138.303 100.196L134.13 107.068L131.149 114.131M170.492 84.5421L164.531 87.5964L159.564 95.0414" stroke="#0500FF"/>
<path d="M343.01 34.7183L335.261 53.8078L328.108 63.5435L318.968 70.4158L306.847 75.3791H297.905L291.149 77.479L288.765 83.0149L301.879 100.196L309.629 118.522L314 128.639L318.968 134.366L323.538 135.13L325.922 131.312L324.929 124.248L328.108 133.03L330.89 138.757L336.056 144.674L341.222 149.065L346.19 149.829L348.574 146.201L345.34 133.582L357.913 153.837L365.066 157.273L368.444 156.319L369.636 152.692L365.066 140.093L371.027 150.401L375.796 156.319L383.148 162.428L389.507 164.909L393.282 164.146L393.878 160.519L389.507 149.256L399.442 162.428L407.39 168.345L415.735 171.4L418.914 170.827L420.504 168.345L416.729 160.519L430.638 170.445L437.791 173.309L445.307 171.4V167.2L451.303 170.445L464.417 171.972L467 169.873V165.864L461.039 159.564L449.514 149.256L435.406 136.657L424.081 121.767L414.344 104.968L407.39 86.2602L391.891 53.8078L377.783 34.7183L368.444 26.3188L358.708 23.6463L349.568 26.3188L343.01 34.7183Z" fill="white"/>
<path d="M365.066 44.6448L375.796 56.2895L386.129 73.0883L390.699 86.2602M390.699 86.2602L399.442 111.268L412.556 133.03M390.699 86.2602L387.519 91.7961L379.969 90.8417L371.027 75.3791M371.027 75.3791L365.066 63.5435L357.913 56.8622M371.027 75.3791L374.008 83.9694V91.7961M374.008 91.7961L368.444 95.0414L362.284 90.8417L355.727 77.479L348.375 69.4613L353.343 77.479L357.913 86.2602L358.708 94.0869M374.008 91.7961L379.969 100.196L384.936 111.268L387.519 121.767M387.519 121.767V128.639L384.936 134.366H381.36M387.519 121.767L391.891 131.312L397.256 138.757M397.256 138.757L405.601 145.438H411.165L414.344 138.757L412.556 133.03M397.256 138.757L407.39 148.301L416.729 160.519M412.556 133.03L415.735 138.757L435.406 159.564L445.307 167.2M416.729 160.519L430.638 170.445L437.791 173.309L445.307 171.4V167.2M416.729 160.519L420.504 168.345L418.914 170.827L415.735 171.4L407.39 168.345L399.442 162.428L389.507 149.256M445.307 167.2L451.303 170.445L464.417 171.972L467 169.873V165.864L461.039 159.564L449.514 149.256L435.406 136.657L424.081 121.767L414.344 104.968L407.39 86.2602L391.891 53.8079L377.783 34.7183L368.444 26.3188L358.708 23.6463L349.568 26.3188L343.01 34.7183L335.261 53.8079L328.108 63.5435L318.968 70.4158L306.847 75.3791H297.905L291.149 77.479L288.765 83.0149L301.879 100.196L309.629 118.522L314 128.639L318.968 134.366L323.538 135.13L325.922 131.312L324.929 124.248M389.507 149.256L381.36 134.366M389.507 149.256L393.878 160.519L393.282 164.146L389.507 164.909L383.148 162.428L375.796 156.319L371.027 150.401L365.066 140.093M381.36 134.366L375.796 127.303L371.027 115.467M371.027 115.467L367.252 108.213L363.675 98.4775L358.708 94.0869M371.027 115.467L372.219 125.203L369.636 131.312H365.066L360.894 128.639M358.708 94.0869L356.721 98.4775L351.952 97.523L344.997 86.2602L338.043 77.479L344.997 92.9415V98.4775M344.997 98.4775L351.952 111.268M344.997 98.4775L342.812 101.15L338.043 100.196L332.877 92.9415L326.518 85.4966L330.294 92.9415L329.697 100.196M351.952 111.268L360.894 128.639M351.952 111.268L354.138 118.522V126.157L350.958 128.066L346.19 126.157L336.851 114.131M360.894 128.639L365.066 140.093M365.066 140.093L369.636 152.692L368.444 156.319L365.066 157.273L357.913 153.837L345.34 133.582M345.34 133.582L348.574 146.202L346.19 149.829L341.222 149.065L336.056 144.674L330.89 138.757L328.108 133.03L324.929 124.248M345.34 133.582L336.851 114.131M321.749 115.467L324.929 124.248M321.749 115.467L323.339 109.549M321.749 115.467H317.974L314 111.268L308.436 95.0414M323.339 109.549L317.974 96.7594M323.339 109.549L329.101 121.385L333.87 124.248L336.851 122.34V114.131M317.974 96.7594L315.391 87.5964L323.339 99.6229L326.518 101.15L329.697 100.196M317.974 96.7594L316.583 99.0502H312.212L308.436 95.0414M329.697 100.196L333.87 107.068L336.851 114.131M297.508 84.5421L303.469 87.5964L308.436 95.0414" stroke="#0500FF"/>
<path d="M131.938 185.067L127.457 170.192V156.309V139.451L129.449 125.568L133.432 107.223L137.912 92.3479L143.389 77.969L148.865 65.5735L153.844 63.5902L182.222 58.632L192.179 58.0881L197.656 57.6403L214.085 56.1528L241.468 55.657L263.872 56.1528L276.816 57.6403L279.306 57.8657L287.769 58.632L313.658 64.086L318.139 65.5735L323.118 75.4899L329.092 89.373L333.573 104.248L337.556 121.106L340.543 141.434V162.755L337.556 182.092L334.071 187.586L321.126 192.504L316.645 179.216L312.165 166.416L307.684 154.601L302.705 143.77L297.727 133.432L292.748 125.062L288.267 118.17L280.799 108.324L275.323 101.431L273.829 93.0621L274.825 86.1697L276.816 78.2928L279.306 57.8657L276.816 57.6403L275.821 63.5234L274.825 72.385L273.331 81.7389L272.335 86.662L270.842 93.5544L263.872 100.939H205.622L199.647 95.5236L198.154 93.5544L196.66 90.1082L193.175 68.4466L192.179 58.0881L189.69 58.632V63.0311L190.188 68.4466L191.682 77.8005L193.673 86.662L194.171 90.1082L194.669 92.0775L195.167 94.0467L194.669 98.4775L189.69 105.37L185.707 110.785L180.729 116.693L177.741 120.631L172.763 128.016L167.784 137.37L163.801 145.739L159.818 155.093L155.835 165.432L150.857 178.724L145.38 192.017C140.9 191.032 142.891 192.008 138.908 190.521L134.925 188.538L131.938 185.067Z" fill="#F8F8FD"/>
<path d="M276.816 57.6403L263.872 56.1528L241.468 55.657L214.085 56.1528L197.656 57.6403L192.179 58.0881M276.816 57.6403L275.821 63.5234L274.825 72.385L273.331 81.7389L272.335 86.662L270.842 93.5544L263.872 100.939H205.622L199.647 95.5236L198.154 93.5544L196.66 90.1082L193.175 68.4466L192.179 58.0881M276.816 57.6403L287.769 58.632L313.658 64.086L318.139 65.5735L323.118 75.4899L329.092 89.373L333.573 104.248L337.556 121.106L340.543 141.434V162.755L337.556 182.092L334.071 187.586L321.126 192.504L316.645 179.216L312.165 166.416L307.684 154.601L302.705 143.77L297.727 133.432L292.748 125.062L288.267 118.17L280.799 108.324L275.323 101.431L273.829 93.0621L274.825 86.1697L276.816 78.2928L279.306 57.8657L276.816 57.6403ZM192.179 58.0881L182.222 58.632L153.844 63.5902L148.865 65.5735L143.389 77.969L137.912 92.3479L133.432 107.223L129.449 125.568L127.457 139.451V156.309V170.192L131.938 185.067L134.925 188.538L138.908 190.521C142.891 192.008 140.9 191.032 145.38 192.017L150.857 178.724L155.835 165.432L159.818 155.093L163.801 145.739L167.784 137.37L172.763 128.016L177.741 120.631L180.729 116.693L185.707 110.785L189.69 105.37L194.669 98.4775L195.167 94.0467L194.669 92.0775L194.171 90.1082L193.673 86.662L191.682 77.8005L190.188 68.4466L189.69 63.0311V58.632L192.179 58.0881Z" stroke="black"/>
<path d="M181.515 74.363L180.644 67.8065L181.282 66.3722L182.321 65.9717L183.312 66.0647L184.752 66.6979L185.553 68.7654L185.812 71.2799L186.118 73.3008L185.48 74.7351L184.394 75.6293L182.908 75.4897L181.515 74.363Z" stroke="black"/>
<path d="M183.216 62.0004C183.218 62.5885 183.199 63.1859 183.143 63.7741" stroke="black" stroke-linecap="round"/>
<path d="M185.136 62.99C185.102 63.1527 184.88 63.3165 184.798 63.4601C184.752 63.5414 184.695 63.647 184.637 63.7129C184.568 63.791 184.484 63.8913 184.424 63.9771C184.376 64.0448 184.347 64.1749 184.272 64.2038" stroke="black" stroke-linecap="round"/>
<path d="M180.797 62.7332C180.805 62.8126 180.918 62.8693 180.969 62.9206C181.076 63.0278 181.157 63.1578 181.268 63.2609C181.376 63.3609 181.493 63.4473 181.599 63.5488C181.71 63.6547 181.731 63.9113 181.868 63.9718" stroke="black" stroke-linecap="round"/>
<ellipse cx="301.709" cy="109.702" rx="6.97009" ry="6.94152" fill="#F8F8FD"/>
<path d="M308.179 109.702C308.179 113.257 305.285 116.143 301.709 116.143C298.134 116.143 295.239 113.257 295.239 109.702C295.239 106.146 298.134 103.26 301.709 103.26C305.285 103.26 308.179 106.146 308.179 109.702Z" stroke="black" stroke-opacity="0.8"/>
<path d="M297.956 113.439L305.463 105.964" stroke="black" stroke-opacity="0.8"/>
<path d="M305.463 113.439L297.956 105.964" stroke="black" stroke-opacity="0.8"/>
<ellipse cx="317.641" cy="94.827" rx="6.97009" ry="6.94152" fill="#F8F8FD"/>
<path d="M324.111 94.827C324.111 98.3827 321.216 101.269 317.641 101.269C314.066 101.269 311.171 98.3827 311.171 94.827C311.171 91.2714 314.066 88.3855 317.641 88.3855C321.216 88.3855 324.111 91.2714 324.111 94.827Z" stroke="black" stroke-opacity="0.8"/>
<path d="M317.641 99.0648C319.988 99.0648 321.894 97.1694 321.894 94.827C321.894 92.4847 319.988 90.5893 317.641 90.5893C315.294 90.5893 313.388 92.4847 313.388 94.827C313.388 97.1694 315.294 99.0648 317.641 99.0648Z" stroke="black" stroke-opacity="0.8"/>
<ellipse cx="301.709" cy="78.9607" rx="6.97009" ry="6.94152" fill="#F8F8FD"/>
<path d="M308.18 78.9607C308.18 82.5163 305.285 85.4022 301.709 85.4022C298.134 85.4022 295.239 82.5163 295.239 78.9607C295.239 75.4051 298.134 72.5192 301.709 72.5192C305.285 72.5192 308.18 75.4051 308.18 78.9607Z" stroke="black" stroke-opacity="0.8"/>
<path d="M301.709 74.9941L305.159 80.944H298.26L301.709 74.9941Z" fill="white"/>
<path d="M302.142 74.7434L301.709 73.9972L301.277 74.7434L297.828 80.6932L297.392 81.444H298.26H305.159H306.027L305.591 80.6932L302.142 74.7434Z" stroke="black" stroke-opacity="0.8"/>
<ellipse cx="286.773" cy="94.827" rx="6.97009" ry="6.94152" fill="#F8F8FD"/>
<path d="M293.244 94.827C293.244 98.3827 290.349 101.269 286.774 101.269C283.198 101.269 280.303 98.3827 280.303 94.827C280.303 91.2714 283.198 88.3855 286.774 88.3855C290.349 88.3855 293.244 91.2714 293.244 94.827Z" stroke="black" stroke-opacity="0.8"/>
<rect x="283.786" y="91.8521" width="5.97436" height="5.94988" fill="white"/>
<rect x="283.286" y="91.3521" width="6.97436" height="6.94988" stroke="black" stroke-opacity="0.8"/>
<path d="M282.549 74.5885L283.448 68.0343L284.444 66.8195L285.551 66.7076L286.482 67.0594L287.702 68.0506L287.926 70.2567L287.509 72.7505L287.268 74.7807L286.273 75.9956L284.989 76.5709L283.592 76.0433L282.549 74.5885Z" stroke="black"/>
<path d="M284.251 63.5902H287.238" stroke="black"/>
<path d="M284.251 62.1027H287.238" stroke="black"/>
<path d="M284.251 65.0777H287.238" stroke="black"/>
<path d="M163.58 89.6159H166.014L170.273 85.3082V77.5543L167.231 75.8312H162.363L159.321 77.5543V85.3082L163.58 89.6159Z" stroke="black"/>
<path d="M169.278 91.8587V94.2655L173.634 98.4775H181.475L183.218 95.4689V90.6552L181.475 87.6467H173.634L169.278 91.8587Z" stroke="black"/>
<path d="M160.316 94.2655V91.8587L155.96 87.6467H148.119L146.376 90.6552V95.4689L148.119 98.4775H155.96L160.316 94.2655Z" stroke="black"/>
<path d="M166.014 95.5237H163.58L159.321 99.8314V107.585L162.363 109.308H167.231L170.274 107.585V99.8314L166.014 95.5237Z" stroke="black"/>
<path d="M164.797 107.339L162.641 105.124H166.953L164.797 107.339Z" fill="#D9D9D9"/>
<path d="M181.227 93.0621L178.986 95.1939V90.9303L181.227 93.0621Z" fill="#D9D9D9"/>
<path d="M164.797 77.8005L166.953 80.0159H162.641L164.797 77.8005Z" fill="#D9D9D9"/>
<path d="M148.368 93.0621L150.608 90.9303V95.1939L148.368 93.0621Z" fill="#D9D9D9"/>
<ellipse cx="227.528" cy="108.214" rx="1.49359" ry="1.48747" fill="black"/>
<ellipse cx="241.468" cy="111.189" rx="1.49359" ry="1.48747" fill="black"/>
<ellipse cx="237.485" cy="111.189" rx="1.49359" ry="1.48747" fill="black"/>
<ellipse cx="233.502" cy="111.189" rx="1.49359" ry="1.48747" fill="black"/>
<ellipse cx="229.519" cy="111.189" rx="1.49359" ry="1.48747" fill="black"/>
<ellipse cx="243.459" cy="108.214" rx="1.49359" ry="1.48747" fill="black"/>
<ellipse cx="239.476" cy="108.214" rx="1.49359" ry="1.48747" fill="black"/>
<ellipse cx="235.494" cy="108.214" rx="1.49359" ry="1.48747" fill="black"/>
<ellipse cx="231.511" cy="108.214" rx="1.49359" ry="1.48747" fill="black"/>
<ellipse cx="269.348" cy="125.154" rx="12.4466" ry="12.8914" fill="#42484D"/>
<ellipse cx="269.481" cy="125.045" rx="9.26459" ry="8.29608" fill="#30353C"/>
<ellipse cx="203.63" cy="125.154" rx="12.4466" ry="12.8914" fill="#42484D"/>
<ellipse cx="203.763" cy="125.045" rx="9.26459" ry="8.29608" fill="#30353D"/>
<path d="M218.564 125.062C218.564 133.497 211.868 140.316 203.63 140.316C195.392 140.316 188.697 133.497 188.697 125.062C188.697 116.628 195.392 109.808 203.63 109.808C211.868 109.808 218.564 116.628 218.564 125.062Z" stroke="black"/>
<path d="M284.282 125.062C284.282 133.497 277.586 140.316 269.348 140.316C261.11 140.316 254.415 133.497 254.415 125.062C254.415 116.628 261.11 109.808 269.348 109.808C277.586 109.808 284.282 116.628 284.282 125.062Z" stroke="black"/>
<path d="M238.481 123.089H239.974L241.966 124.081V125.072L235.991 127.361M238.481 123.089L239.476 121.106L238.979 118.627L235.991 117.139L233.004 116.643C233.004 116.643 233.004 119.816 233.004 121.849M238.481 123.089H235.991V119.122V127.361M235.991 127.361L235.494 127.551L233.004 127.056C233.004 127.056 233.004 123.883 233.004 121.849M233.004 121.849L230.017 123.089L228.523 124.576L229.519 126.56H232.506M230.515 125.072L232.506 124.576M236.489 125.568L238.979 124.576H239.476" stroke="black"/>
<path d="M240.27 134.83C240.388 134.906 240.438 134.96 240.459 134.989C240.438 135.017 240.388 135.071 240.27 135.147C240.053 135.286 239.707 135.43 239.235 135.558C238.298 135.813 236.975 135.976 235.494 135.976C234.012 135.976 232.69 135.813 231.752 135.558C231.28 135.43 230.934 135.286 230.718 135.147C230.6 135.071 230.549 135.017 230.529 134.989C230.549 134.96 230.6 134.906 230.718 134.83C230.934 134.692 231.28 134.548 231.752 134.419C232.69 134.165 234.012 134.001 235.494 134.001C236.975 134.001 238.298 134.165 239.235 134.419C239.707 134.548 240.053 134.692 240.27 134.83Z" stroke="black"/>
</svg>
