<svg width="470" height="196" viewBox="0 0 470 196" fill="none" xmlns="http://www.w3.org/2000/svg">
<path d="M193 70.6213L192.5 61.2805H191V64.8928L191.735 75.2169L195.5 91.4403L196 94.8817L198 95.6939L193 70.6213Z" fill="#0F57F7" stroke="#0F57F7"/>
<path d="M277.441 70.3919L278.265 60.2971L280 60.7887L279 64.9347L278.265 75.3531L274.5 91.7249V95.6938H273L277.441 70.3919Z" fill="#0F57F7" stroke="#0F57F7"/>
<path d="M264.315 105.035H206.5L201 101.102L196.5 94.7106H198L199 96.6771L200.5 98.6435L203.5 101.593L206.5 104.051H264.5L268.5 100.61L272.5 95.6938H274L271.5 100.61L268 103.068L264.315 105.035Z" fill="#3A3E40" stroke="#393B3C"/>
<path d="M161.5 156.163C161.5 156.163 145.5 192.041 145.5 193.526C145.5 195.012 156 194.018 156 194.018L168.499 168.758L179.999 149.448L191.999 144.992L200.999 146.973H268.499L279.499 144.992L288.999 146.973L313 195C316.166 194.67 322 195 322.5 194.505C323 194.01 321.499 188.563 321.499 188.563L315.999 172.719L309.499 154.895L300.499 136.575L289.999 119.245L277.499 103.401L276 94.219L275 95.2022L273.999 96.6771L271.999 101.421L264.499 105.877H206.499L200.499 101.421L196.499 95.6939V100.431L190.999 108.353L176.999 125.682L169 140.431L161.5 156.163Z" fill="#222631" stroke="black"/>
<path d="M155.491 62.5917L155 66.1969L160.5 64.9951L173.176 62.5917L183 60.2974L182.018 55.9821L174.649 55.3812L169.983 55.9821L165.316 56.583L155.491 62.5917Z" fill="#303331"/>
<path d="M313.509 61.2807L314.5 65.7052L310 64.722L295.5 61.7723L286 60.2974L286.983 55.8728L294.351 55.3812L303.684 56.3645L313.509 61.2807Z" fill="#303331"/>
<path d="M125.522 36.9402L133.304 56.003L140.488 65.7251L149.668 72.5877L161.841 77.544H170.821L177.605 79.6409L180 85.1692L166.829 102.326L159.047 120.626L154.657 130.729L149.668 136.448L145.078 137.211L142.683 133.398L143.681 126.345L140.488 135.114L137.695 140.833L132.506 146.742L127.318 151.127L122.329 151.889L119.934 148.267L123.182 135.666L110.555 155.892L103.371 159.324L99.9788 158.37L98.7815 154.748L103.371 142.167L97.3846 152.461L92.5953 158.37L85.2118 164.471L78.8261 166.949L75.0346 166.186L74.4359 162.564L78.8261 151.317L68.8484 164.471L60.8662 170.38L52.485 173.43L49.2921 172.858L47.6957 170.38L51.4872 162.564L37.5184 172.477L30.3344 175.336L22.7864 173.43V169.236L16.7648 172.477L3.5942 174.002L1 171.905V167.902L6.98662 161.611L18.5608 151.317L32.7291 138.736L44.1037 123.867L53.8818 107.091L60.8662 88.4098L76.4314 56.003L90.5998 36.9402L99.9788 28.5526L109.757 25.8838L118.936 28.5526L125.522 36.9402Z" fill="white"/>
<path d="M103.371 46.8529L92.5953 58.4812L82.2185 75.2565L77.6288 88.4098M77.6288 88.4098L68.8484 113.382L55.6778 135.114M77.6288 88.4098L80.8216 93.9381L88.4047 92.9849L97.3846 77.544M97.3846 77.544L103.371 65.7251L110.555 59.0531M97.3846 77.544L94.3913 86.1223V93.9381M94.3913 93.9381L99.9788 97.1787L106.165 92.9849L112.75 79.641L120.134 71.6346L115.145 79.641L110.555 88.4098L109.757 96.2256M94.3913 93.9381L88.4047 102.326L83.4158 113.382L80.8216 123.867M80.8216 123.867V130.729L83.4158 136.448H87.0078M80.8216 123.867L76.4314 133.398L71.0435 140.833M71.0435 140.833L62.6622 147.505H57.0747L53.8818 140.833L55.6778 135.114M71.0435 140.833L60.8662 150.364L51.4872 162.564M55.6778 135.114L52.485 140.833L32.7291 161.611L22.7864 169.236M51.4872 162.564L37.5184 172.477L30.3344 175.336L22.7864 173.43V169.236M51.4872 162.564L47.6957 170.38L49.2921 172.858L52.485 173.43L60.8662 170.38L68.8484 164.471L78.8261 151.317M22.7864 169.236L16.7648 172.477L3.5942 174.002L1 171.905V167.902L6.98662 161.611L18.5608 151.317L32.7291 138.736L44.1037 123.867L53.8818 107.091L60.8662 88.4098L76.4314 56.003L90.5998 36.9402L99.9788 28.5526L109.757 25.8838L118.936 28.5526L125.522 36.9402L133.304 56.003L140.488 65.7251L149.668 72.5877L161.841 77.544H170.821L177.605 79.641L180 85.1692L166.829 102.326L159.047 120.626L154.657 130.729L149.668 136.448L145.078 137.211L142.683 133.398L143.681 126.345M78.8261 151.317L87.0078 136.448M78.8261 151.317L74.4359 162.564L75.0346 166.186L78.8261 166.949L85.2118 164.471L92.5953 158.37L97.3846 152.461L103.371 142.167M87.0078 136.448L92.5953 129.395L97.3846 117.576M97.3846 117.576L101.176 110.332L104.768 100.61L109.757 96.2256M97.3846 117.576L96.1873 127.298L98.7815 133.398H103.371L107.562 130.729M109.757 96.2256L111.753 100.61L116.542 99.6569L123.526 88.4098L130.511 79.641L123.526 95.0818V100.61M123.526 100.61L116.542 113.382M123.526 100.61L125.721 103.279L130.511 102.326L135.699 95.0818L142.085 87.6473L138.293 95.0818L138.892 102.326M116.542 113.382L107.562 130.729M116.542 113.382L114.347 120.626V128.251L117.54 130.157L122.329 128.251L131.708 116.242M107.562 130.729L103.371 142.167M103.371 142.167L98.7815 154.748L99.9788 158.37L103.371 159.324L110.555 155.892L123.182 135.666M123.182 135.666L119.934 148.267L122.329 151.889L127.318 151.127L132.506 146.742L137.695 140.833L140.488 135.114L143.681 126.345M123.182 135.666L131.708 116.242M146.874 117.576L143.681 126.345M146.874 117.576L145.278 111.666M146.874 117.576H150.666L154.657 113.382L160.244 97.1787M145.278 111.666L150.666 98.8944M145.278 111.666L139.491 123.485L134.701 126.345L131.708 124.439V116.242M150.666 98.8944L153.26 89.7442L145.278 101.754L142.085 103.279L138.892 102.326M150.666 98.8944L152.062 101.182H156.453L160.244 97.1787M138.892 102.326L134.701 109.188L131.708 116.242M171.22 86.6942L165.233 89.7442L160.244 97.1787" stroke="#2463F0"/>
<path d="M344.478 36.9402L336.696 56.003L329.512 65.7251L320.332 72.5877L308.159 77.544H299.179L292.395 79.6409L290 85.1692L303.171 102.326L310.953 120.626L315.343 130.729L320.332 136.448L324.922 137.211L327.317 133.398L326.319 126.345L329.512 135.114L332.305 140.833L337.494 146.742L342.682 151.127L347.671 151.889L350.066 148.267L346.818 135.666L359.445 155.892L366.629 159.324L370.021 158.37L371.219 154.748L366.629 142.167L372.615 152.461L377.405 158.37L384.788 164.471L391.174 166.949L394.965 166.186L395.564 162.564L391.174 151.317L401.152 164.471L409.134 170.38L417.515 173.43L420.708 172.858L422.304 170.38L418.513 162.564L432.482 172.477L439.666 175.336L447.214 173.43V169.236L453.235 172.477L466.406 174.002L469 171.905V167.902L463.013 161.611L451.439 151.317L437.271 138.736L425.896 123.867L416.118 107.091L409.134 88.4098L393.569 56.003L379.4 36.9402L370.021 28.5526L360.243 25.8838L351.064 28.5526L344.478 36.9402Z" fill="white"/>
<path d="M366.629 46.8529L377.405 58.4812L387.781 75.2565L392.371 88.4098M392.371 88.4098L401.152 113.382L414.322 135.114M392.371 88.4098L389.178 93.9381L381.595 92.9849L372.615 77.544M372.615 77.544L366.629 65.7251L359.445 59.0531M372.615 77.544L375.609 86.1223V93.9381M375.609 93.9381L370.021 97.1787L363.835 92.9849L357.25 79.641L349.866 71.6346L354.855 79.641L359.445 88.4098L360.243 96.2256M375.609 93.9381L381.595 102.326L386.584 113.382L389.178 123.867M389.178 123.867V130.729L386.584 136.448H382.992M389.178 123.867L393.569 133.398L398.957 140.833M398.957 140.833L407.338 147.505H412.925L416.118 140.833L414.322 135.114M398.957 140.833L409.134 150.364L418.513 162.564M414.322 135.114L417.515 140.833L437.271 161.611L447.214 169.236M418.513 162.564L432.482 172.477L439.666 175.336L447.214 173.43V169.236M418.513 162.564L422.304 170.38L420.708 172.858L417.515 173.43L409.134 170.38L401.152 164.471L391.174 151.317M447.214 169.236L453.235 172.477L466.406 174.002L469 171.905V167.902L463.013 161.611L451.439 151.317L437.271 138.736L425.896 123.867L416.118 107.091L409.134 88.4098L393.569 56.003L379.4 36.9402L370.021 28.5526L360.243 25.8838L351.064 28.5526L344.478 36.9402L336.696 56.003L329.512 65.7251L320.332 72.5877L308.159 77.544H299.179L292.395 79.641L290 85.1692L303.171 102.326L310.953 120.626L315.343 130.729L320.332 136.448L324.922 137.211L327.317 133.398L326.319 126.345M391.174 151.317L382.992 136.448M391.174 151.317L395.564 162.564L394.965 166.186L391.174 166.949L384.788 164.471L377.405 158.37L372.615 152.461L366.629 142.167M382.992 136.448L377.405 129.395L372.615 117.576M372.615 117.576L368.824 110.332L365.232 100.61L360.243 96.2256M372.615 117.576L373.813 127.298L371.219 133.398H366.629L362.438 130.729M360.243 96.2256L358.247 100.61L353.458 99.6569L346.474 88.4098L339.489 79.641L346.474 95.0818V100.61M346.474 100.61L353.458 113.382M346.474 100.61L344.279 103.279L339.489 102.326L334.301 95.0818L327.915 87.6473L331.707 95.0818L331.108 102.326M353.458 113.382L362.438 130.729M353.458 113.382L355.653 120.626V128.251L352.46 130.157L347.671 128.251L338.292 116.242M362.438 130.729L366.629 142.167M366.629 142.167L371.219 154.748L370.021 158.37L366.629 159.324L359.445 155.892L346.818 135.666M346.818 135.666L350.066 148.267L347.671 151.889L342.682 151.127L337.494 146.742L332.305 140.833L329.512 135.114L326.319 126.345M346.818 135.666L338.292 116.242M323.126 117.576L326.319 126.345M323.126 117.576L324.722 111.666M323.126 117.576H319.334L315.343 113.382L309.756 97.1787M324.722 111.666L319.334 98.8944M324.722 111.666L330.509 123.485L335.299 126.345L338.292 124.439V116.242M319.334 98.8944L316.74 89.7442L324.722 101.754L327.915 103.279L331.108 102.326M319.334 98.8944L317.938 101.182H313.547L309.756 97.1787M331.108 102.326L335.299 109.188L338.292 116.242M298.78 86.6942L304.767 89.7442L309.756 97.1787" stroke="#2463F0"/>
<path d="M132.5 187.078L128 172.224V158.36V141.526L130 127.663L134 109.343L138.5 94.489L144 80.1303L149.5 67.7522L154.5 65.7716L183 60.8204L193 60.2773L198.5 59.8301L215 58.3447L242.5 57.8496L265 58.3447L278 59.8301L280.5 60.0552L289 60.8204L315 66.2668L319.5 67.7522L324.5 77.6547L330.5 91.5183L335 106.372L339 123.206L342 143.507V164.797L339 184.107L335.5 189.593L322.5 194.505L318 181.236L313.5 168.454L309 156.655L304 145.839L299 135.515L294 127.158L289.5 120.275L282 110.442L276.5 103.56L275 95.2022L276 88.3195L278 80.4536L280.5 60.0552L278 59.8301L277 65.705L276 74.5542L274.5 83.895L273.5 88.8112L272 95.6938L265 103.068H206.5L200.5 97.6603L199 95.6938L197.5 92.2525L194 70.6212L193 60.2773L190.5 60.8204V65.2134L191 70.6212L192.5 79.962L194.5 88.8112L195 92.2525L195.5 94.219L196 96.1855L195.5 100.61L190.5 107.493L186.5 112.901L181.5 118.8L178.5 122.733L173.5 130.107L168.5 139.448L164.5 147.806L160.5 157.146L156.5 167.47L151.5 180.744L146 194.018C141.5 193.035 143.5 194.01 139.5 192.524L135.5 190.544L132.5 187.078Z" fill="#F8F8FD"/>
<path d="M278 59.8301L265 58.3447L242.5 57.8496L215 58.3447L198.5 59.8301L193 60.2773M278 59.8301L277 65.705L276 74.5542L274.5 83.895L273.5 88.8112L272 95.6938L265 103.068H206.5L200.5 97.6603L199 95.6938L197.5 92.2525L194 70.6212L193 60.2773M278 59.8301L289 60.8204L315 66.2668L319.5 67.7522L324.5 77.6547L330.5 91.5183L335 106.372L339 123.206L342 143.507V164.797L339 184.107L335.5 189.593L322.5 194.505L318 181.236L313.5 168.454L309 156.655L304 145.839L299 135.515L294 127.158L289.5 120.275L282 110.442L276.5 103.56L275 95.2022L276 88.3195L278 80.4536L280.5 60.0552L278 59.8301ZM193 60.2773L183 60.8204L154.5 65.7716L149.5 67.7522L144 80.1303L138.5 94.489L134 109.343L130 127.663L128 141.526V158.36V172.224L132.5 187.078L135.5 190.544L139.5 192.524C143.5 194.01 141.5 193.035 146 194.018L151.5 180.744L156.5 167.47L160.5 157.146L164.5 147.806L168.5 139.448L173.5 130.107L178.5 122.733L181.5 118.8L186.5 112.901L190.5 107.493L195.5 100.61L196 96.1855L195.5 94.219L195 92.2525L194.5 88.8112L192.5 79.962L191 70.6212L190.5 65.2134V60.8204L193 60.2773Z" stroke="black"/>
<path d="M182.29 76.5293L181.415 69.982L182.056 68.5497L183.099 68.1497L184.094 68.2427L185.54 68.8749L186.345 70.9395L186.605 73.4505L186.913 75.4686L186.272 76.9009L185.181 77.7938L183.688 77.6544L182.29 76.5293Z" stroke="black"/>
<path d="M183.998 64.1843C184.001 64.7716 183.982 65.3682 183.925 65.9555" stroke="black" stroke-linecap="round"/>
<path d="M185.927 65.1724C185.892 65.3349 185.669 65.4984 185.588 65.6418C185.541 65.723 185.484 65.8284 185.425 65.8942C185.356 65.9722 185.272 66.0724 185.211 66.158C185.163 66.2256 185.134 66.3555 185.059 66.3845" stroke="black" stroke-linecap="round"/>
<path d="M181.568 64.9161C181.576 64.9954 181.69 65.052 181.741 65.1033C181.849 65.2103 181.93 65.3402 182.042 65.4431C182.151 65.543 182.268 65.6293 182.374 65.7305C182.485 65.8363 182.506 66.0926 182.644 66.153" stroke="black" stroke-linecap="round"/>
<ellipse cx="303" cy="111.818" rx="7" ry="6.93179" fill="#F8F8FD"/>
<path d="M309.5 111.818C309.5 115.366 306.594 118.25 303 118.25C299.406 118.25 296.5 115.366 296.5 111.818C296.5 108.271 299.406 105.386 303 105.386C306.594 105.386 309.5 108.271 309.5 111.818Z" stroke="black" stroke-opacity="0.8"/>
<path d="M299.231 115.551L306.769 108.086" stroke="black" stroke-opacity="0.8"/>
<path d="M306.769 115.551L299.231 108.086" stroke="black" stroke-opacity="0.8"/>
<ellipse cx="319" cy="96.9649" rx="7" ry="6.93179" fill="#F8F8FD"/>
<path d="M325.5 96.9649C325.5 100.512 322.594 103.397 319 103.397C315.405 103.397 312.5 100.512 312.5 96.9649C312.5 93.4173 315.405 90.5331 319 90.5331C322.594 90.5331 325.5 93.4173 325.5 96.9649Z" stroke="black" stroke-opacity="0.8"/>
<path d="M319 101.197C321.353 101.197 323.269 99.307 323.269 96.9648C323.269 94.6226 321.353 92.7323 319 92.7323C316.647 92.7323 314.731 94.6226 314.731 96.9648C314.731 99.307 316.647 101.197 319 101.197Z" stroke="black" stroke-opacity="0.8"/>
<ellipse cx="303" cy="81.1208" rx="7" ry="6.93179" fill="#F8F8FD"/>
<path d="M309.5 81.1208C309.5 84.6683 306.594 87.5525 303 87.5525C299.406 87.5525 296.5 84.6683 296.5 81.1208C296.5 77.5732 299.406 74.689 303 74.689C306.594 74.689 309.5 77.5732 309.5 81.1208Z" stroke="black" stroke-opacity="0.8"/>
<path d="M303 77.1598L306.464 83.1013H299.536L303 77.1598Z" fill="white"/>
<path d="M303.432 76.908L303 76.1671L302.568 76.908L299.104 82.8495L298.665 83.6013H299.536H306.464H307.334L306.896 82.8495L303.432 76.908Z" stroke="black" stroke-opacity="0.8"/>
<ellipse cx="288" cy="96.9649" rx="7" ry="6.93179" fill="#F8F8FD"/>
<path d="M294.5 96.9649C294.5 100.512 291.594 103.397 288 103.397C284.406 103.397 281.5 100.512 281.5 96.9649C281.5 93.4173 284.406 90.5331 288 90.5331C291.594 90.5331 294.5 93.4173 294.5 96.9649Z" stroke="black" stroke-opacity="0.8"/>
<rect x="285" y="93.9941" width="6" height="5.94153" fill="white"/>
<rect x="284.5" y="93.4941" width="7" height="6.94153" stroke="black" stroke-opacity="0.8"/>
<path d="M283.757 76.7545L284.66 70.2095L285.66 68.9964L286.772 68.8847L287.707 69.236L288.932 70.2258L289.158 72.4288L288.739 74.9191L288.497 76.9464L287.497 78.1596L286.207 78.7342L284.805 78.2073L283.757 76.7545Z" stroke="black"/>
<path d="M285.466 65.7715H288.466" stroke="black"/>
<path d="M285.466 64.2863H288.466" stroke="black"/>
<path d="M285.466 67.2571H288.466" stroke="black"/>
<path d="M164.278 91.761H166.723L171 87.4593V79.7163L167.945 77.9956H163.056L160 79.7163V87.4593L164.278 91.761Z" stroke="black"/>
<path d="M170 94.0004V96.4039L174.375 100.61H182.25L184 97.6056V92.7987L182.25 89.7943H174.375L170 94.0004Z" stroke="black"/>
<path d="M161 96.4041V94.0006L156.625 89.7946H148.75L147 92.7989V97.6059L148.75 100.61H156.625L161 96.4041Z" stroke="black"/>
<path d="M166.722 97.6604H164.278L160 101.962V109.705L163.056 111.426H167.945L171 109.705V101.962L166.722 97.6604Z" stroke="black"/>
<path d="M165.5 109.459L163.335 107.247H167.665L165.5 109.459Z" fill="#D9D9D9"/>
<path d="M182 95.2025L179.75 97.3313V93.0737L182 95.2025Z" fill="#D9D9D9"/>
<path d="M165.5 79.9624L167.665 82.1747H163.335L165.5 79.9624Z" fill="#D9D9D9"/>
<path d="M149 95.2023L151.25 93.0735V97.3311L149 95.2023Z" fill="#D9D9D9"/>
<ellipse cx="228.5" cy="110.333" rx="1.5" ry="1.48538" fill="black"/>
<ellipse cx="242.5" cy="113.304" rx="1.5" ry="1.48538" fill="black"/>
<ellipse cx="238.5" cy="113.304" rx="1.5" ry="1.48538" fill="black"/>
<ellipse cx="234.5" cy="113.304" rx="1.5" ry="1.48538" fill="black"/>
<ellipse cx="230.5" cy="113.304" rx="1.5" ry="1.48538" fill="black"/>
<ellipse cx="244.5" cy="110.333" rx="1.5" ry="1.48538" fill="black"/>
<ellipse cx="240.5" cy="110.333" rx="1.5" ry="1.48538" fill="black"/>
<ellipse cx="236.5" cy="110.333" rx="1.5" ry="1.48538" fill="black"/>
<ellipse cx="232.5" cy="110.333" rx="1.5" ry="1.48538" fill="black"/>
<ellipse cx="270.5" cy="127.249" rx="12.5" ry="12.8733" fill="#42484D"/>
<ellipse cx="270.633" cy="127.14" rx="9.30435" ry="8.28444" fill="#30353C"/>
<ellipse cx="204.5" cy="127.249" rx="12.5" ry="12.8733" fill="#42484D"/>
<ellipse cx="204.633" cy="127.14" rx="9.30435" ry="8.28444" fill="#30353D"/>
<path d="M219.5 127.158C219.5 135.577 212.777 142.389 204.5 142.389C196.222 142.389 189.5 135.577 189.5 127.158C189.5 118.738 196.222 111.926 204.5 111.926C212.777 111.926 219.5 118.738 219.5 127.158Z" stroke="black"/>
<path d="M285.5 127.158C285.5 135.577 278.777 142.389 270.5 142.389C262.223 142.389 255.5 135.577 255.5 127.158C255.5 118.738 262.223 111.926 270.5 111.926C278.777 111.926 285.5 118.738 285.5 127.158Z" stroke="black"/>
<path d="M239.5 125.187H241L243 126.177V127.168L237 129.453M239.5 125.187L240.5 123.207L240 120.731L237 119.246L234 118.75C234 118.75 234 121.919 234 123.949M239.5 125.187H237V121.226V129.453M237 129.453L236.5 129.643L234 129.148C234 129.148 234 125.98 234 123.949M234 123.949L231 125.187L229.5 126.673L230.5 128.653H233.5M231.5 127.168L233.5 126.673M237.5 127.663L240 126.673H240.5" stroke="black"/>
<path d="M241.299 136.913C241.416 136.988 241.466 137.042 241.488 137.07C241.466 137.098 241.416 137.152 241.299 137.227C241.081 137.366 240.733 137.509 240.259 137.638C239.317 137.892 237.988 138.055 236.5 138.055C235.012 138.055 233.683 137.892 232.741 137.638C232.267 137.509 231.919 137.366 231.701 137.227C231.584 137.152 231.534 137.098 231.512 137.07C231.534 137.042 231.584 136.988 231.701 136.913C231.919 136.774 232.267 136.631 232.741 136.502C233.683 136.248 235.012 136.085 236.5 136.085C237.988 136.085 239.317 136.248 240.259 136.502C240.733 136.631 241.081 136.774 241.299 136.913Z" stroke="black"/>
<path d="M172.935 7.71047L164.794 12.1253L162.718 14.4209L162 18.5708V24.9281L163.517 29.961L166.629 32.6982L176.447 36.5832L189.218 39.4969L205.261 42.0575L219.469 43.2053L236.949 44L255.307 43.2053L269.275 42.0575L284.6 39.4969L297.052 35.2587L299.846 33.1396L301.602 30.8439L302.32 26.7823V21.9261L302.001 16.8049L300.564 14.4209L290.028 9.2115L276.459 5.67967L261.214 3.0308L246.767 1.79466L228.089 1H215.558L205.261 1.79466L194.486 3.0308L183.551 4.97331L172.935 7.71047Z" fill="white" stroke="black"/>
<path d="M172.137 21.5729L168.146 23.9569L174.292 26.5175L185.466 29.343L196.88 31.2855L211.328 33.3163L227.69 34.8173H241.658L259.218 33.3163L275.82 31.2855L289.868 28.1951L297.052 25.2814L287.713 21.5729L272.308 18.1294L255.227 15.922L239.823 15.0391H226.253H215.957H205.98L196.88 15.922L188.739 17.1582L180.119 19.189L172.137 21.5729Z" fill="#00439C" stroke="black"/>
</svg>
