<svg width="32" height="37" viewBox="0 0 32 37" fill="none" xmlns="http://www.w3.org/2000/svg">
<path d="M16 16.6579C20.9755 16.6579 24.5 13.0541 24.5 8.57895C24.5 4.10382 20.9755 0.5 16 0.5C11.0245 0.5 7.5 4.10382 7.5 8.57895C7.5 13.0541 11.0245 16.6579 16 16.6579Z" fill="white" stroke="black"/>
<path d="M1.91222 24.38C2.83125 23.5568 4.40094 23.0362 5.81903 22.726C6.51462 22.5738 7.14913 22.4773 7.60979 22.4188C7.83983 22.3896 8.02577 22.37 8.1534 22.3577C8.2172 22.3516 8.26638 22.3474 8.29915 22.3446L8.33008 22.3422H16.0052H23.2077L23.2103 22.3423L23.2498 22.3442C23.2852 22.346 23.3382 22.349 23.407 22.3535C23.5446 22.3625 23.7449 22.3776 23.9925 22.4017C24.4885 22.45 25.1711 22.5345 25.9184 22.6786C27.442 22.9725 29.1232 23.4949 30.0956 24.3778C30.9174 25.1238 31.3319 26.2273 31.4578 27.5372C31.5837 28.8461 31.415 30.3072 31.1233 31.6911C30.8325 33.0708 30.4247 34.3493 30.0884 35.2847C29.9206 35.7518 29.7712 36.1317 29.6641 36.3939C29.6486 36.4318 29.634 36.4672 29.6204 36.5001H2.38956C2.37571 36.4668 2.36088 36.4308 2.34513 36.3924C2.23746 36.1295 2.08722 35.7487 1.91845 35.2807C1.58038 34.3432 1.17041 33.0625 0.878162 31.6812C0.585032 30.2958 0.415791 28.8342 0.542592 27.527C0.669471 26.2189 1.0864 25.1197 1.91222 24.38Z" fill="white" stroke="black"/>
</svg>
