<svg width="34" height="38" viewBox="0 0 34 38" fill="none" xmlns="http://www.w3.org/2000/svg">
<path d="M1 29.5166V9.35281C1 9.35281 1.2244 7.62789 1.6581 6.78904C2.09179 5.95018 3.22108 5.05676 3.22108 5.05676H5.97686V1H10.8715V5.05676H31.437C31.437 5.05676 32.0363 5.68038 32.5887 7.20479C32.9074 8.08426 33 9.35281 33 9.35281V31.2488V35.9606L32.1774 37H4.82519H1.90488L1 36.1685V29.5166Z" fill="white"/>
<path d="M10.8715 5.05676H31.437C31.437 5.05676 32.0363 5.68038 32.5887 7.20479C32.9074 8.08426 33 9.35281 33 9.35281V31.2488V35.9606L32.1774 37H4.82519H1.90488L1 36.1685V29.5166V9.35281C1 9.35281 1.2244 7.62789 1.6581 6.78904C2.09179 5.95018 3.22108 5.05676 3.22108 5.05676H5.97686M10.8715 5.05676V1H5.97686V5.05676M10.8715 5.05676H5.97686" stroke="black"/>
<ellipse cx="17.5" cy="19.5" rx="9.5" ry="11.5" fill="#E9E9E9"/>
<circle cx="13" cy="18" r="3" fill="white"/>
<circle cx="13" cy="18" r="3" fill="white"/>
<circle cx="13" cy="18" r="3" fill="white"/>
<circle cx="22" cy="18" r="3" fill="white"/>
<circle cx="22" cy="18" r="3" fill="white"/>
<circle cx="22" cy="18" r="3" fill="white"/>
</svg>
